<svg xmlns="http://www.w3.org/2000/svg" version="1.1" xmlns:xlink="http://www.w3.org/1999/xlink" xmlns:svgjs="http://svgjs.dev/svgjs" width="1500" height="518" viewBox="0 0 1500 518"><g transform="matrix(1,0,0,1,-0.9090909090909918,-1.200511340227365)"><svg viewBox="0 0 396 137" data-background-color="#000000" preserveAspectRatio="xMidYMid meet" height="518" width="1500" xmlns="http://www.w3.org/2000/svg" xmlns:xlink="http://www.w3.org/1999/xlink"><g id="tight-bounds" transform="matrix(1,0,0,1,0.2400000000000091,0.3175097560060749)"><svg viewBox="0 0 395.52 136.36498048798782" height="136.36498048798782" width="395.52"><g><svg viewBox="0 0 395.52 136.36498048798782" height="136.36498048798782" width="395.52"><g><svg viewBox="0 0 395.52 136.36498048798782" height="136.36498048798782" width="395.52"><g id="textblocktransform"><svg viewBox="0 0 395.52 136.36498048798782" height="136.36498048798782" width="395.52" id="textblock"><g><svg viewBox="0 0 395.52 92.05902937834766" height="92.05902937834766" width="395.52"><g transform="matrix(1,0,0,1,0,0)"><svg width="395.52" viewBox="0.49 -35.01 150.39999999999998 35.01" height="92.05902937834766" data-palette-color="#ffffff"><path d="M19.46 0L17.14-8.15 6.05-8.15 3.76 0 0.49 0 10.74-35.01 12.4-35.01 22.71 0 19.46 0ZM11.5-27.29L6.91-11.16 16.31-11.16 11.69-27.29 11.6-28.59 11.5-27.29ZM42.55-32.01L34.2-32.01 34.2 0 31.05 0 31.05-32.01 22.7-32.01 22.7-35.01 42.55-35.01 42.55-32.01ZM67.65 0L64.01 0 54.51-14.94 50.19-14.94 50.19 0 47.04 0 47.04-35.01 58.15-35.01Q59.93-35.01 61.49-34.34 63.06-33.67 64.23-32.5 65.4-31.32 66.07-29.75 66.74-28.17 66.74-26.39L66.74-26.39 66.74-23.56Q66.74-21.78 66.07-20.2 65.4-18.63 64.23-17.46 63.06-16.28 61.49-15.61 59.93-14.94 58.15-14.94L58.15-14.94 67.65 0ZM63.59-23.56L63.59-26.39Q63.59-27.56 63.15-28.58 62.71-29.59 61.96-30.36 61.2-31.13 60.19-31.57 59.17-32.01 58-32.01L58-32.01 50.19-32.01 50.19-17.94 58-17.94Q59.17-17.94 60.19-18.38 61.2-18.82 61.96-19.59 62.71-20.36 63.15-21.37 63.59-22.39 63.59-23.56L63.59-23.56ZM89.1 0L86.78-8.15 75.7-8.15 73.41 0 70.13 0 80.39-35.01 82.05-35.01 92.35 0 89.1 0ZM81.14-27.29L76.56-11.16 85.95-11.16 81.34-27.29 81.24-28.59 81.14-27.29ZM115.54 0L112.15 0 104.95-14.55 97.74 0 94.33 0 103.24-17.99 94.84-35.01 98.23-35.01 104.95-21.46 111.64-35.01 115.03-35.01 106.63-17.99 115.54 0ZM124.18 0L121.03 0 121.03-35.01 124.18-35.01 124.18 0ZM147.64 0L145.32-8.15 134.24-8.15 131.94 0 128.67 0 138.93-35.01 140.59-35.01 150.89 0 147.64 0ZM139.68-27.29L135.09-11.16 144.49-11.16 139.88-27.29 139.78-28.59 139.68-27.29Z" opacity="1" transform="matrix(1,0,0,1,0,0)" fill="#ffffff" class="wordmark-text-0" data-fill-palette-color="primary" id="text-0"></path></svg></g></svg></g><g transform="matrix(1,0,0,1,75.54431999999998,113.79195679787045)"><svg viewBox="0 0 244.43136 22.57302369011736" height="22.57302369011736" width="244.43136"><g transform="matrix(1,0,0,1,0,0)"><svg width="244.43136" viewBox="1.95 -34.35 380.66 35.160000000000004" height="22.57302369011736" data-palette-color="#ffffff"><path d="M24.1-9.4L24.1-9.4Q24.1-6.88 22.74-4.54 21.39-2.2 18.47-0.7 15.55 0.81 10.84 0.81L10.84 0.81Q8.15 0.81 6.15 0.34 4.15-0.12 3.05-0.59 1.95-1.05 1.95-1.05L1.95-1.05 1.95-9.91 5.1-9.91 5.76-4.25Q5.81-3.96 6.08-3.61 6.35-3.27 6.59-3.15L6.59-3.15Q6.71-3.13 8.02-2.56 9.33-2 11.65-2L11.65-2Q14.84-2 16.92-3.56 18.99-5.13 18.99-7.91L18.99-7.91Q18.99-9.42 18.15-10.56 17.31-11.69 15.97-12.57 14.62-13.45 13.1-14.17 11.57-14.89 10.21-15.55L10.21-15.55Q8.15-16.53 6.4-17.64 4.64-18.75 3.56-20.39 2.49-22.02 2.49-24.56L2.49-24.56Q2.49-27.54 4-29.74 5.52-31.93 8.13-33.14 10.74-34.35 14.04-34.35L14.04-34.35Q16.72-34.35 18.77-33.83 20.83-33.3 22.41-32.79L22.41-32.79 22.85-32.64 22.85-24.85 20-24.85 19.24-29.64Q19.19-29.98 18.93-30.14 18.68-30.3 18.46-30.52L18.46-30.52Q18.26-30.66 17.25-31.15 16.24-31.64 14.11-31.64L14.11-31.64Q11.11-31.64 9.38-29.97 7.64-28.3 7.64-25.76L7.64-25.76Q7.64-23.46 9.44-21.95 11.23-20.43 14.6-19.14L14.6-19.14Q19.14-17.43 21.62-15.3 24.1-13.16 24.1-9.4ZM68.31-2.15L68.31 0 55.69 0 55.69-2.15 58.35-2.34Q58.88-2.39 59.16-2.73 59.45-3.08 59.45-3.44L59.45-3.44 59.45-31.01 47.95 0 45.46 0 34.35-30.54 34.35-3.44Q34.35-3.08 34.63-2.73 34.91-2.39 35.45-2.34L35.45-2.34 38.3-2.15 38.3 0 27.49 0 27.49-2.15 30.34-2.34Q30.88-2.39 31.14-2.73 31.39-3.08 31.39-3.44L31.39-3.44 31.39-30.1Q31.39-30.47 31.14-30.82 30.88-31.18 30.34-31.2L30.34-31.2 27.49-31.4 27.49-33.54 38.69-33.54 38.69-32.2 47.75-7.64 56.81-32.06 56.81-33.54 68.31-33.54 68.31-31.4 65.6-31.2Q65.06-31.18 64.78-30.82 64.5-30.47 64.5-30.1L64.5-30.1 64.5-3.44Q64.5-3.08 64.78-2.73 65.06-2.39 65.6-2.34L65.6-2.34 68.31-2.15ZM103.29-2.15L103.29 0 91.4 0 91.4-2.15 94.28-2.39Q94.48-2.39 94.65-2.65 94.82-2.91 94.82-3.13L94.82-3.13Q94.82-3.22 94.79-3.25L94.79-3.25 91.35-12.4 79.8-12.4 76.48-3.39Q76.46-3.34 76.46-3.25L76.46-3.25Q76.46-2.95 76.72-2.67 76.97-2.39 77.19-2.39L77.19-2.39 80.15-2.15 80.15 0 70.09 0 70.09-2.15 72.99-2.76 84.64-34.35 88.4-34.35 100-3.49Q100.19-2.98 100.34-2.81 100.48-2.64 101.04-2.54L101.04-2.54 103.29-2.15ZM80.68-14.79L90.45-14.79 85.54-27.91 80.68-14.79ZM135.98-2.1L135.98 0.15Q135.66 0.17 134.73 0.49 133.81 0.81 132.68 0.81L132.68 0.81Q130.12 0.81 128.62-0.05 127.12-0.9 126.3-2.31 125.48-3.71 125-5.4 124.53-7.08 124.04-8.75 123.55-10.42 122.7-11.83 121.84-13.23 120.31-14.09 118.77-14.94 116.13-14.94L116.13-14.94Q115.35-14.94 114.65-14.89 113.96-14.84 113.88-14.84L113.88-14.84 113.88-3.44Q113.88-3.08 114.14-2.73 114.4-2.39 114.93-2.34L114.93-2.34 117.57-2.15 117.57 0 105.14 0 105.14-2.15 107.73-2.34Q108.27-2.39 108.55-2.73 108.83-3.08 108.83-3.44L108.83-3.44 108.83-30.1Q108.83-30.47 108.55-30.82 108.27-31.18 107.73-31.2L107.73-31.2 105.14-31.4 105.14-33.54 118.18-33.54Q123.87-33.54 127.15-31.58 130.44-29.61 130.44-24.66L130.44-24.66Q130.44-22.05 129.26-20.37 128.09-18.7 126.23-17.75 124.36-16.8 122.23-16.31L122.23-16.31Q124.55-15.75 125.86-14.71 127.17-13.67 127.8-12.35 128.43-11.04 128.75-9.62 129.07-8.2 129.39-6.86 129.7-5.52 130.35-4.44 131-3.37 132.32-2.73 133.64-2.1 135.98-2.1L135.98-2.1ZM124.99-24.44L124.99-24.44Q124.99-27.64 122.95-29.37 120.92-31.1 116.18-31.1L116.18-31.1 113.88-31.1 113.88-17.41Q114.01-17.41 114.9-17.38 115.79-17.36 116.37-17.36L116.37-17.36Q120.55-17.36 122.77-18.9 124.99-20.43 124.99-24.44ZM165.13-33.54L165.13-25.56 162.17-25.56 161.46-30.25Q161.29-31.1 160.63-31.1L160.63-31.1 153.48-31.1 153.48-3.44Q153.48-3.08 153.74-2.73 153.99-2.39 154.53-2.34L154.53-2.34 157.73-2.15 157.73 0 144.18 0 144.18-2.15 147.38-2.34Q147.91-2.39 148.17-2.73 148.43-3.08 148.43-3.44L148.43-3.44 148.43-31.1 141.23-31.1Q140.49-31.1 140.37-30.25L140.37-30.25 139.69-25.56 136.78-25.56 136.78-33.54 165.13-33.54ZM230.7-2.15L230.7 0 218.08 0 218.08-2.15 220.74-2.34Q221.27-2.39 221.55-2.73 221.84-3.08 221.84-3.44L221.84-3.44 221.84-31.01 210.34 0 207.85 0 196.74-30.54 196.74-3.44Q196.74-3.08 197.02-2.73 197.3-2.39 197.84-2.34L197.84-2.34 200.69-2.15 200.69 0 189.88 0 189.88-2.15 192.73-2.34Q193.27-2.39 193.53-2.73 193.78-3.08 193.78-3.44L193.78-3.44 193.78-30.1Q193.78-30.47 193.53-30.82 193.27-31.18 192.73-31.2L192.73-31.2 189.88-31.4 189.88-33.54 201.08-33.54 201.08-32.2 210.14-7.64 219.2-32.06 219.2-33.54 230.7-33.54 230.7-31.4 227.99-31.2Q227.45-31.18 227.17-30.82 226.89-30.47 226.89-30.1L226.89-30.1 226.89-3.44Q226.89-3.08 227.17-2.73 227.45-2.39 227.99-2.34L227.99-2.34 230.7-2.15ZM247.08-2.15L247.08 0 233.89 0 233.89-2.15 236.87-2.34Q237.41-2.39 237.67-2.73 237.92-3.08 237.92-3.44L237.92-3.44 237.92-30.1Q237.92-30.47 237.67-30.8 237.41-31.13 236.87-31.15L236.87-31.15 233.89-31.35 233.89-33.54 247.08-33.54 247.08-31.35 244.03-31.15Q243.51-31.13 243.24-30.8 242.98-30.47 242.98-30.1L242.98-30.1 242.98-3.44Q242.98-3.08 243.24-2.73 243.51-2.39 244.03-2.34L244.03-2.34 247.08-2.15ZM281.18-2.1L281.18 0.15Q280.86 0.17 279.94 0.49 279.01 0.81 277.89 0.81L277.89 0.81Q275.32 0.81 273.82-0.05 272.32-0.9 271.5-2.31 270.68-3.71 270.21-5.4 269.73-7.08 269.24-8.75 268.75-10.42 267.9-11.83 267.05-13.23 265.51-14.09 263.97-14.94 261.33-14.94L261.33-14.94Q260.55-14.94 259.86-14.89 259.16-14.84 259.09-14.84L259.09-14.84 259.09-3.44Q259.09-3.08 259.34-2.73 259.6-2.39 260.14-2.34L260.14-2.34 262.77-2.15 262.77 0 250.35 0 250.35-2.15 252.93-2.34Q253.47-2.39 253.75-2.73 254.03-3.08 254.03-3.44L254.03-3.44 254.03-30.1Q254.03-30.47 253.75-30.82 253.47-31.18 252.93-31.2L252.93-31.2 250.35-31.4 250.35-33.54 263.38-33.54Q269.07-33.54 272.36-31.58 275.64-29.61 275.64-24.66L275.64-24.66Q275.64-22.05 274.47-20.37 273.3-18.7 271.43-17.75 269.56-16.8 267.44-16.31L267.44-16.31Q269.76-15.75 271.06-14.71 272.37-13.67 273-12.35 273.64-11.04 273.95-9.62 274.27-8.2 274.59-6.86 274.91-5.52 275.55-4.44 276.2-3.37 277.52-2.73 278.84-2.1 281.18-2.1L281.18-2.1ZM270.19-24.44L270.19-24.44Q270.19-27.64 268.16-29.37 266.12-31.1 261.38-31.1L261.38-31.1 259.09-31.1 259.09-17.41Q259.21-17.41 260.1-17.38 260.99-17.36 261.58-17.36L261.58-17.36Q265.75-17.36 267.97-18.9 270.19-20.43 270.19-24.44ZM313.62-2.1L313.62 0.15Q313.31 0.17 312.38 0.49 311.45 0.81 310.33 0.81L310.33 0.81Q307.77 0.81 306.26-0.05 304.76-0.9 303.94-2.31 303.13-3.71 302.65-5.4 302.17-7.08 301.69-8.75 301.2-10.42 300.34-11.83 299.49-13.23 297.95-14.09 296.41-14.94 293.78-14.94L293.78-14.94Q293-14.94 292.3-14.89 291.6-14.84 291.53-14.84L291.53-14.84 291.53-3.44Q291.53-3.08 291.79-2.73 292.04-2.39 292.58-2.34L292.58-2.34 295.22-2.15 295.22 0 282.79 0 282.79-2.15 285.38-2.34Q285.92-2.39 286.2-2.73 286.48-3.08 286.48-3.44L286.48-3.44 286.48-30.1Q286.48-30.47 286.2-30.82 285.92-31.18 285.38-31.2L285.38-31.2 282.79-31.4 282.79-33.54 295.83-33.54Q301.52-33.54 304.8-31.58 308.08-29.61 308.08-24.66L308.08-24.66Q308.08-22.05 306.91-20.37 305.74-18.7 303.87-17.75 302-16.8 299.88-16.31L299.88-16.31Q302.2-15.75 303.51-14.71 304.81-13.67 305.45-12.35 306.08-11.04 306.4-9.62 306.72-8.2 307.03-6.86 307.35-5.52 308-4.44 308.64-3.37 309.96-2.73 311.28-2.1 313.62-2.1L313.62-2.1ZM302.64-24.44L302.64-24.44Q302.64-27.64 300.6-29.37 298.56-31.1 293.83-31.1L293.83-31.1 291.53-31.1 291.53-17.41Q291.65-17.41 292.54-17.38 293.43-17.36 294.02-17.36L294.02-17.36Q298.2-17.36 300.42-18.9 302.64-20.43 302.64-24.44ZM348.22-16.75L348.22-16.75Q348.22-13.11 347.06-9.94 345.9-6.76 343.75-4.35 341.6-1.93 338.6-0.56 335.6 0.81 331.93 0.81L331.93 0.81Q327.03 0.81 323.35-1.5 319.68-3.81 317.63-7.79 315.58-11.77 315.58-16.8L315.58-16.8Q315.58-20.46 316.71-23.63 317.85-26.81 319.99-29.22 322.14-31.64 325.15-33 328.15-34.35 331.88-34.35L331.88-34.35Q335.6-34.35 338.6-32.98 341.6-31.62 343.75-29.19 345.9-26.76 347.06-23.57 348.22-20.39 348.22-16.75ZM342.43-16.7L342.43-16.7Q342.43-20.78 341.26-24.13 340.09-27.49 337.76-29.49 335.42-31.49 331.93-31.49L331.93-31.49Q328.32-31.49 325.96-29.48 323.61-27.47 322.46-24.12 321.31-20.78 321.31-16.8L321.31-16.8Q321.31-12.79 322.46-9.41 323.61-6.03 325.94-3.99 328.27-1.95 331.81-1.95L331.81-1.95Q335.42-1.95 337.77-3.99 340.11-6.03 341.27-9.39 342.43-12.74 342.43-16.7ZM382.61-2.1L382.61 0.15Q382.3 0.17 381.37 0.49 380.44 0.81 379.32 0.81L379.32 0.81Q376.75 0.81 375.25-0.05 373.75-0.9 372.93-2.31 372.12-3.71 371.64-5.4 371.16-7.08 370.68-8.75 370.19-10.42 369.33-11.83 368.48-13.23 366.94-14.09 365.4-14.94 362.77-14.94L362.77-14.94Q361.98-14.94 361.29-14.89 360.59-14.84 360.52-14.84L360.52-14.84 360.52-3.44Q360.52-3.08 360.78-2.73 361.03-2.39 361.57-2.34L361.57-2.34 364.21-2.15 364.21 0 351.78 0 351.78-2.15 354.37-2.34Q354.9-2.39 355.18-2.73 355.47-3.08 355.47-3.44L355.47-3.44 355.47-30.1Q355.47-30.47 355.18-30.82 354.9-31.18 354.37-31.2L354.37-31.2 351.78-31.4 351.78-33.54 364.82-33.54Q370.5-33.54 373.79-31.58 377.07-29.61 377.07-24.66L377.07-24.66Q377.07-22.05 375.9-20.37 374.73-18.7 372.86-17.75 370.99-16.8 368.87-16.31L368.87-16.31Q371.19-15.75 372.49-14.71 373.8-13.67 374.44-12.35 375.07-11.04 375.39-9.62 375.7-8.2 376.02-6.86 376.34-5.52 376.99-4.44 377.63-3.37 378.95-2.73 380.27-2.1 382.61-2.1L382.61-2.1ZM371.63-24.44L371.63-24.44Q371.63-27.64 369.59-29.37 367.55-31.1 362.81-31.1L362.81-31.1 360.52-31.1 360.52-17.41Q360.64-17.41 361.53-17.38 362.42-17.36 363.01-17.36L363.01-17.36Q367.18-17.36 369.41-18.9 371.63-20.43 371.63-24.44Z" opacity="1" transform="matrix(1,0,0,1,0,0)" fill="#ffffff" class="slogan-text-1" data-fill-palette-color="secondary" id="text-1"></path></svg></g></svg></g></svg></g></svg></g><g></g></svg></g><defs></defs></svg><rect width="395.52" height="136.36498048798782" fill="none" stroke="none" visibility="hidden"></rect></g></svg></g></svg>